<?xml version="1.0" encoding="utf-8"?>
<!-- Generator: Adobe Illustrator 25.2.1, SVG Export Plug-In . SVG Version: 6.00 Build 0)  -->
<svg version="1.1" id="Capa_1" xmlns="http://www.w3.org/2000/svg" xmlns:xlink="http://www.w3.org/1999/xlink" x="0px" y="0px"
	 viewBox="0 0 228.66 39.08" style="enable-background:new 0 0 228.66 39.08;" xml:space="preserve">
<style type="text/css">
	.st0{fill:#FED136;}
</style>
<g>
	<path class="st0" d="M-217.12-149.23c0.07,0.4,0.13,0.68,0.16,0.83c0.04,0.2,0.06,0.41,0.05,0.62c0.01,0.76-0.17,1.5-0.51,2.18
		c-0.29,0.62-0.78,1.13-1.4,1.43c-0.48-0.64-1.07-1.19-1.73-1.64c-0.7-0.47-1.46-0.85-2.25-1.14c-0.82-0.29-1.67-0.51-2.53-0.65
		c-0.84-0.14-1.7-0.21-2.55-0.21c-0.78-0.01-1.55,0.06-2.32,0.19c-0.65,0.11-1.29,0.29-1.91,0.53c-0.49,0.18-0.94,0.47-1.31,0.83
		c-0.31,0.3-0.48,0.71-0.48,1.14c0.14,0.62,0.49,1.18,1,1.57c0.64,0.59,1.34,1.11,2.09,1.56c0.82,0.51,1.74,1,2.74,1.5s2,1,3,1.42
		c1.2,0.57,2.24,1.09,3.11,1.58c0.79,0.42,1.52,0.96,2.16,1.59c0.56,0.57,1,1.25,1.28,2c0.26,0.85,0.37,1.73,0.32,2.62
		c0.01,1.15-0.19,2.3-0.6,3.38c-0.39,1.03-0.98,1.96-1.75,2.74c-0.79,0.79-1.74,1.42-2.78,1.83c-1.16,0.45-2.4,0.67-3.65,0.65
		c-1.43-0.02-2.84-0.22-4.22-0.6c-1.49-0.38-2.93-0.94-4.3-1.65c-1.23-0.61-2.36-1.42-3.33-2.4c-0.83-0.74-1.32-1.78-1.37-2.89
		c0.03-0.62,0.17-1.23,0.41-1.8c0.34-0.85,0.84-1.64,1.47-2.31c0.15,0.92,0.54,1.79,1.12,2.52c0.85,1.1,1.91,2.02,3.13,2.69
		c1.25,0.73,2.6,1.29,4,1.65c1.26,0.33,2.56,0.5,3.87,0.51c1.1,0.04,2.19-0.13,3.23-0.5c0.72-0.26,1.38-0.66,1.94-1.18
		c0.43-0.39,0.77-0.87,1-1.4c0.16-0.36,0.27-0.74,0.32-1.13c-0.04-0.52-0.27-1.01-0.65-1.37c-0.5-0.5-1.06-0.93-1.67-1.27
		c-0.69-0.41-1.5-0.83-2.42-1.26c-0.92-0.43-1.88-0.85-2.87-1.27c-1.48-0.66-2.77-1.28-3.84-1.86c-0.94-0.49-1.83-1.09-2.65-1.77
		c-0.64-0.52-1.16-1.17-1.53-1.9c-0.33-0.71-0.49-1.48-0.47-2.26c0.01-1.34,0.43-2.65,1.2-3.75c0.87-1.23,2.09-2.17,3.51-2.69
		c0.77-0.34,1.59-0.58,2.42-0.71c0.84-0.14,1.68-0.21,2.53-0.22c1.55,0,3.08,0.22,4.57,0.64
		C-220.06-150.42-218.57-149.87-217.12-149.23z"/>
	<path class="st0" d="M-214.28-138.93c-0.17-0.27-0.28-0.58-0.32-0.9c-0.09-0.39-0.14-0.79-0.15-1.19c0.59,0.1,1.18,0.15,1.77,0.15
		h1.56c0.36-0.7,0.74-1.4,1.15-2.09c0.41-0.69,0.82-1.32,1.21-1.89c0.34-0.5,0.7-0.99,1.09-1.45c0.23-0.29,0.5-0.55,0.8-0.77
		c0.3,0.01,0.61,0.05,0.9,0.12c0.37,0.09,0.74,0.19,1.12,0.32c0.38,0.13,0.72,0.27,1,0.41c0.24,0.1,0.45,0.24,0.63,0.42
		c-0.71,0.9-1.31,1.72-1.82,2.48s-1.06,1.64-1.65,2.62h1.44c0.49,0,0.98-0.03,1.47-0.1c0.12,0.13,0.22,0.28,0.28,0.44
		c0.07,0.17,0.11,0.36,0.11,0.55c-1.35,0.48-2.78,0.71-4.22,0.67c-0.59,1.14-1.11,2.27-1.57,3.39c-0.46,1.12-0.85,2.21-1.17,3.25
		c-0.3,0.96-0.55,1.95-0.74,2.94c-0.17,0.82-0.26,1.65-0.27,2.49c0,1.04,0.39,1.62,1.17,1.74c0.69-0.09,1.36-0.27,2-0.53
		c0.61-0.25,1.19-0.58,1.7-1c0.12,0.16,0.2,0.35,0.24,0.54c-0.2,0.28-0.45,0.52-0.72,0.73c-0.36,0.3-0.73,0.57-1.12,0.83
		c-0.37,0.26-0.77,0.49-1.17,0.69c-0.27,0.15-0.55,0.25-0.85,0.31c-0.61,0-1.21-0.12-1.77-0.35c-0.57-0.23-1.11-0.53-1.61-0.89
		c-0.46-0.33-0.86-0.73-1.18-1.19c-0.29-0.37-0.45-0.82-0.46-1.29c0.01-0.72,0.09-1.44,0.23-2.14c0.15-0.87,0.37-1.8,0.65-2.82
		c0.28-1.02,0.62-2.08,1-3.19c0.38-1.11,0.79-2.21,1.24-3.3L-214.28-138.93z"/>
	<path class="st0" d="M-191.7-139.67c0.28,0.01,0.56,0.05,0.83,0.12c0.3,0.08,0.59,0.19,0.87,0.32c0.23,0.11,0.45,0.25,0.65,0.41
		c0.18,0.14,0.27,0.27,0.27,0.39c-0.47,1-0.91,2-1.31,3c-0.4,1-0.74,2-1,2.89c-0.26,0.85-0.48,1.71-0.65,2.58
		c-0.14,0.69-0.22,1.39-0.23,2.09c-0.01,0.55,0.06,1.11,0.21,1.64c0.11,0.39,0.36,0.73,0.71,0.94c-0.34,0.21-0.71,0.37-1.1,0.46
		c-0.39,0.11-0.79,0.17-1.2,0.18c-1.28,0-1.91-0.87-1.91-2.62c0.13-1.91,0.59-3.78,1.36-5.53c-0.46,1.04-1.01,2.05-1.63,3
		c-0.56,0.88-1.19,1.72-1.87,2.52c-0.58,0.71-1.25,1.34-1.98,1.88c-0.53,0.4-1.14,0.68-1.79,0.83c-0.87,0-1.67-0.45-2.12-1.2
		c-0.57-0.89-0.86-1.94-0.82-3c0.02-1.44,0.31-2.86,0.85-4.19c0.56-1.45,1.29-2.82,2.18-4.09c0.81-1.17,1.78-2.23,2.88-3.14
		c0.82-0.76,1.88-1.21,3-1.27c0.29,0.1,0.56,0.25,0.8,0.43c0.3,0.22,0.59,0.47,0.85,0.74c0.26,0.26,0.49,0.55,0.69,0.86
		c0.16,0.23,0.27,0.49,0.32,0.76c-1.06,0.17-2.06,0.61-2.91,1.27c-1.03,0.81-1.95,1.75-2.73,2.81c-0.81,1.08-1.48,2.26-2,3.51
		c-0.49,1.1-0.75,2.29-0.78,3.5c-0.05,0.36,0.16,0.72,0.5,0.85c0.95-0.33,1.78-0.95,2.37-1.76c1.22-1.49,2.31-3.08,3.26-4.76
		l0.79-1.41c0.3-0.52,0.6-1.07,0.91-1.63l0.9-1.72C-192.2-138.57-191.96-139.13-191.7-139.67z"/>
	<path class="st0" d="M-188.12-126.08c0.11-0.68,0.32-1.58,0.62-2.7c0.3-1.12,0.64-2.32,1-3.58s0.83-2.53,1.27-3.81
		s0.89-2.42,1.31-3.43c0.24-0.59,0.51-1.16,0.82-1.72c0.21-0.37,0.47-0.71,0.78-1c0.34,0.05,0.67,0.14,1,0.25
		c0.34,0.11,0.68,0.25,1,0.42c0.31,0.15,0.6,0.32,0.89,0.51c0.22,0.15,0.42,0.32,0.6,0.52c-0.66,0.79-1.23,1.65-1.68,2.58
		c-0.55,1.18-1.01,2.39-1.38,3.64c1.27-1.13,2.39-2.22,3.38-3.26c1.01-1.08,1.93-2.24,2.74-3.47c0.22-0.13,0.48-0.19,0.74-0.17
		c0.34-0.01,0.68,0.05,1,0.16c0.26,0.07,0.49,0.22,0.64,0.44c-0.42,1.07-0.63,2.21-0.64,3.36c-0.05,0.81,0.11,1.61,0.46,2.34
		c-0.11,0.3-0.27,0.57-0.48,0.81c-0.3,0.4-0.64,0.78-1,1.13c-0.65-0.33-1.23-0.79-1.71-1.34c-0.48-0.56-0.86-1.2-1.1-1.89
		c-1,0.69-1.94,1.45-2.83,2.28c-0.77,0.73-1.45,1.57-2,2.48c-0.59,0.99-1.07,2.04-1.42,3.13c-0.38,1.18-0.76,2.59-1.11,4.22
		c-0.26-0.05-0.52-0.12-0.76-0.23c-0.31-0.14-0.61-0.3-0.89-0.48c-0.28-0.18-0.54-0.38-0.79-0.6
		C-187.86-125.65-188.02-125.85-188.12-126.08z"/>
	<path class="st0" d="M-170.92-138.93c-0.17-0.27-0.28-0.58-0.32-0.9c-0.08-0.39-0.13-0.79-0.14-1.19c0.59,0.1,1.18,0.15,1.77,0.15
		h1.56c0.35-0.7,0.74-1.4,1.15-2.09s0.81-1.32,1.2-1.89c0.34-0.5,0.71-0.99,1.1-1.45c0.23-0.29,0.5-0.55,0.8-0.77
		c0.3,0.01,0.6,0.05,0.9,0.12c0.37,0.09,0.74,0.19,1.12,0.32s0.72,0.27,1,0.41c0.24,0.09,0.46,0.24,0.64,0.42
		c-0.71,0.9-1.32,1.72-1.82,2.48s-1.06,1.64-1.65,2.62h1.41c0.49,0,0.98-0.03,1.47-0.1c0.13,0.12,0.23,0.27,0.29,0.44
		c0.07,0.18,0.1,0.36,0.1,0.55c-1.35,0.48-2.78,0.71-4.21,0.67c-0.59,1.14-1.12,2.27-1.58,3.39c-0.46,1.12-0.81,2.21-1.07,3.25
		c-0.3,0.97-0.55,1.95-0.75,2.94c-0.16,0.82-0.25,1.65-0.26,2.49c0,1.04,0.39,1.62,1.17,1.74c0.69-0.09,1.36-0.27,2-0.53
		c0.62-0.24,1.19-0.58,1.7-1c0.12,0.16,0.2,0.34,0.25,0.54c-0.21,0.28-0.45,0.52-0.73,0.73c-0.35,0.3-0.72,0.57-1.11,0.83
		c-0.37,0.26-0.77,0.49-1.17,0.69c-0.27,0.14-0.55,0.25-0.85,0.31c-0.61,0-1.21-0.12-1.77-0.35c-0.57-0.23-1.11-0.53-1.61-0.89
		c-0.46-0.33-0.86-0.73-1.18-1.19c-0.29-0.37-0.45-0.82-0.47-1.29c0.02-0.72,0.09-1.43,0.23-2.14c0.16-0.87,0.38-1.8,0.66-2.82
		c0.28-1.02,0.61-2.08,1-3.19s0.79-2.21,1.24-3.3L-170.92-138.93z"/>
	<path class="st0" d="M-127.59-144.88c0.02,1.4-0.4,2.77-1.2,3.92c-0.86,1.19-1.99,2.17-3.29,2.85c0.87,0.58,1.6,1.35,2.14,2.24
		c0.53,0.88,0.81,1.9,0.8,2.93c-0.02,1.34-0.42,2.65-1.15,3.77c-0.81,1.28-1.85,2.39-3.07,3.29c-1.33,0.98-2.79,1.77-4.35,2.32
		c-1.6,0.58-3.29,0.88-5,0.88c-1.67,0.05-3.33-0.29-4.84-1c-1.34-0.67-2.47-1.71-3.23-3c0.23-0.71,0.54-1.59,0.93-2.64
		c0.39-1,0.82-2.16,1.3-3.32c0.48-1.16,1-2.33,1.43-3.49c0.43-1.16,0.94-2.2,1.36-3.12c0.9-2,1.7-3.67,2.41-5
		c0.59-1.1,1.26-2.15,2-3.15c-1.21,0.37-2.39,0.82-3.54,1.36c-0.85,0.37-1.64,0.87-2.34,1.47c-0.25-0.17-0.47-0.39-0.65-0.63
		c-0.23-0.3-0.45-0.61-0.64-0.94c-0.2-0.33-0.37-0.69-0.5-1.05c-0.12-0.31-0.19-0.63-0.23-0.95c0.75-0.49,1.55-0.9,2.39-1.22
		c1.05-0.41,2.12-0.74,3.21-1c1.17-0.29,2.36-0.52,3.55-0.68c1.16-0.16,2.32-0.24,3.49-0.24c2.34-0.13,4.67,0.46,6.66,1.7
		C-128.41-148.52-127.52-146.74-127.59-144.88z M-141.07-136.4c-0.48-0.25-0.9-0.59-1.24-1c-0.55,1.2-1.06,2.38-1.54,3.54
		c-0.48,1.16-0.92,2.23-1.3,3.22s-0.68,1.86-0.92,2.59c-0.18,0.54-0.31,1.09-0.39,1.65c0.37,0.2,0.77,0.35,1.19,0.42
		c0.57,0.11,1.14,0.16,1.72,0.15c1.56,0.01,3.11-0.22,4.6-0.68c1.38-0.42,2.68-1.06,3.86-1.89c1.04-0.7,1.94-1.6,2.65-2.64
		c0.64-0.91,0.99-2,1-3.11c0.08-1.43-0.71-2.76-2-3.37c-1.98,0.79-4.1,1.17-6.23,1.14h-0.76
		C-140.65-136.37-140.86-136.37-141.07-136.4z M-134.2-148.7c-0.52,0-1.05,0.03-1.57,0.09c-0.56,0.06-1.14,0.15-1.75,0.27
		c0.09,0.09,0.17,0.19,0.23,0.3c0,0.1,0.11,0.21,0.16,0.33c-0.29,0.4-0.55,0.81-0.78,1.24c-0.31,0.55-0.65,1.18-1,1.9
		c-0.35,0.72-0.77,1.51-1.19,2.39c-0.42,0.88-0.83,1.77-1.25,2.69c0.48-0.11,0.98-0.19,1.47-0.23c0.57-0.06,1.14-0.09,1.71-0.09
		c0.31,0,0.61,0,0.91,0s0.58,0.06,0.86,0.11c1.05-0.17,2.08-0.45,3.07-0.83c0.83-0.33,1.62-0.76,2.35-1.28
		c0.59-0.43,1.1-0.97,1.48-1.59c0.35-0.56,0.53-1.21,0.53-1.87c0.05-1.04-0.46-2.02-1.34-2.57
		C-131.5-148.48-132.85-148.78-134.2-148.7z"/>
	<path class="st0" d="M-122.67-124.13c-1.28-0.11-2.45-0.75-3.22-1.77c-0.84-1.16-1.27-2.57-1.2-4c0.01-0.99,0.15-1.98,0.42-2.94
		c0.29-1.04,0.7-2.05,1.21-3c0.52-0.96,1.14-1.87,1.84-2.71c0.68-0.82,1.45-1.56,2.3-2.19c1.03-0.87,2.31-1.37,3.65-1.45
		c0.95,0.62,1.72,1.49,2.23,2.51h0.32h0.31c1.26,0,1.88,1.11,1.88,3.33c0.01,1.44-0.24,2.87-0.73,4.23c-0.46,1.31-1.14,2.54-2,3.63
		c-0.86,1.09-1.9,2.02-3.08,2.75C-119.95-124.98-121.28-124.43-122.67-124.13z M-120.86-135.28c-0.42,0.56-0.79,1.15-1.13,1.77
		c-0.35,0.62-0.66,1.27-0.92,1.93c-0.25,0.61-0.45,1.23-0.6,1.87c-0.14,0.53-0.21,1.07-0.22,1.62c0,0.55,0.1,1.1,0.29,1.62
		c0.18,0.52,0.4,0.82,0.63,0.89c1.06-0.23,2.05-0.69,2.92-1.33c0.9-0.67,1.69-1.49,2.31-2.42c0.66-1.02,1.18-2.13,1.52-3.3
		c0.37-1.28,0.56-2.6,0.55-3.93c0.01-0.49-0.03-0.97-0.11-1.45c-0.06-0.32-0.18-0.64-0.35-0.92c-1.02,0.31-1.97,0.83-2.78,1.53
		C-119.53-136.77-120.24-136.06-120.86-135.28z"/>
	<path class="st0" d="M-107.05-124.13c-1.28-0.1-2.45-0.75-3.22-1.77c-0.85-1.15-1.28-2.57-1.21-4c0-1,0.15-1.98,0.43-2.94
		c0.28-1.04,0.68-2.05,1.2-3c0.52-0.96,1.14-1.87,1.84-2.71c0.68-0.82,1.45-1.55,2.3-2.19c1.03-0.86,2.31-1.37,3.65-1.45
		c0.96,0.62,1.73,1.49,2.23,2.51h0.32h0.32c1.25,0,1.87,1.11,1.87,3.33c0.01,1.44-0.24,2.87-0.72,4.23c-0.47,1.31-1.14,2.54-2,3.63
		c-0.86,1.09-1.9,2.02-3.08,2.75C-104.33-124.98-105.66-124.43-107.05-124.13z M-105.2-135.28c-0.42,0.56-0.79,1.15-1.13,1.77
		c-0.35,0.62-0.65,1.27-0.92,1.93c-0.25,0.61-0.45,1.23-0.6,1.87c-0.13,0.53-0.21,1.07-0.22,1.62c0,0.55,0.1,1.1,0.29,1.62
		c0.19,0.52,0.4,0.82,0.64,0.89c1.05-0.24,2.05-0.69,2.92-1.33c0.9-0.67,1.68-1.49,2.3-2.42c0.67-1.02,1.18-2.13,1.52-3.3
		c0.38-1.28,0.56-2.6,0.55-3.93c0.01-0.49-0.03-0.97-0.11-1.45c-0.06-0.32-0.18-0.64-0.35-0.92c-1.04,0.31-2,0.83-2.83,1.53
		C-103.9-136.76-104.59-136.05-105.2-135.28z"/>
	<path class="st0" d="M-93.88-138.93c-0.17-0.27-0.28-0.58-0.32-0.9c-0.09-0.39-0.14-0.79-0.14-1.19c0.58,0.1,1.18,0.15,1.77,0.15
		h1.55c0.36-0.7,0.74-1.4,1.15-2.09s0.82-1.32,1.21-1.89c0.34-0.5,0.71-0.99,1.1-1.45c0.23-0.29,0.49-0.55,0.79-0.77
		c0.31,0.01,0.61,0.05,0.91,0.12c0.36,0.09,0.73,0.19,1.11,0.32s0.72,0.27,1,0.41c0.24,0.09,0.45,0.24,0.63,0.42
		c-0.7,0.9-1.31,1.72-1.82,2.48s-1.06,1.64-1.64,2.62h1.43c0.49,0,0.98-0.03,1.47-0.1c0.13,0.12,0.22,0.27,0.28,0.44
		c0.07,0.17,0.11,0.36,0.11,0.55c-1.35,0.48-2.78,0.71-4.22,0.67c-0.59,1.14-1.11,2.27-1.57,3.39c-0.46,1.12-0.85,2.21-1.17,3.25
		c-0.3,0.96-0.55,1.95-0.74,2.94c-0.17,0.82-0.26,1.65-0.27,2.49c0,1.04,0.39,1.62,1.17,1.74c0.69-0.09,1.36-0.27,2-0.53
		c0.61-0.25,1.19-0.58,1.7-1c0.12,0.16,0.2,0.35,0.25,0.54c-0.21,0.27-0.46,0.52-0.73,0.73c-0.36,0.3-0.73,0.58-1.12,0.83
		c-0.37,0.25-0.76,0.48-1.16,0.69c-0.27,0.14-0.55,0.25-0.85,0.31c-0.61,0-1.21-0.12-1.77-0.35c-0.57-0.23-1.11-0.53-1.61-0.89
		c-0.46-0.33-0.86-0.73-1.19-1.19c-0.29-0.37-0.45-0.82-0.46-1.29c0.02-0.72,0.09-1.43,0.23-2.14c0.15-0.87,0.37-1.8,0.65-2.82
		c0.28-1.02,0.62-2.08,1-3.19s0.79-2.21,1.23-3.3L-93.88-138.93z"/>
	<path class="st0" d="M-71.3-139.51c-0.03,0.47-0.1,0.94-0.23,1.4c-0.12,0.45-0.28,0.89-0.47,1.31c-0.16,0.36-0.37,0.69-0.61,1
		c-0.13,0.21-0.35,0.36-0.6,0.39c-0.26,0-0.41-0.2-0.46-0.53c0.01-0.12,0.04-0.23,0.09-0.34c0.06-0.15,0.12-0.32,0.19-0.51
		s0.14-0.38,0.2-0.57c0.05-0.16,0.08-0.32,0.09-0.49c0.01-0.3-0.07-0.59-0.23-0.84c-0.14-0.21-0.37-0.33-0.62-0.33
		c-0.95,0-1.67,0.59-2.16,1.76c-0.57,1.66-0.83,3.42-0.74,5.18c-0.02,0.14-0.02,0.28,0,0.42h2.48c0.02,0.09,0.02,0.19,0,0.28
		c0.02,0.17-0.03,0.33-0.14,0.46l-1.29,0.3c-0.25,0.06-0.49,0.14-0.73,0.23c-0.12,0.04-0.23,0.12-0.3,0.23
		c-0.04,0.11-0.05,0.22-0.05,0.33c0,0.19,0,0.38,0,0.57s0,0.42,0,0.7c0.08,1.73-0.49,3.43-1.61,4.76c-1.17,1.25-2.77,2-4.48,2.09
		c-0.35-0.03-0.69-0.13-1-0.28c-0.36-0.17-0.69-0.39-1-0.64c-0.31-0.25-0.59-0.54-0.83-0.87c-0.23-0.3-0.4-0.64-0.5-1
		c0-0.89,0.19-1.78,0.57-2.59c0.37-0.81,0.9-1.55,1.54-2.17c0.67-0.65,1.45-1.17,2.3-1.54c0.91-0.4,1.9-0.6,2.89-0.59
		c0-0.58-0.06-1.17-0.18-1.74c-0.12-0.57-0.24-1.12-0.37-1.65s-0.26-1.06-0.37-1.57c-0.12-0.49-0.18-1-0.18-1.51
		c0-0.65,0.14-1.3,0.39-1.9c0.25-0.63,0.58-1.21,1-1.74c0.42-0.53,0.92-0.99,1.48-1.37c0.54-0.37,1.14-0.63,1.77-0.78
		c0.37,0.14,0.71,0.35,1,0.62c0.45,0.36,0.88,0.74,1.29,1.15c0.41,0.4,0.78,0.83,1.13,1.29C-71.72-140.28-71.47-139.91-71.3-139.51z
		 M-82.98-123.4c0.59-0.24,1.13-0.58,1.61-1c1.01-0.9,1.78-2.05,2.23-3.33c0.22-0.6,0.34-1.24,0.34-1.88
		c-0.56,0.11-1.09,0.33-1.56,0.66c-1.14,0.75-2.11,1.73-2.84,2.89c-0.29,0.42-0.46,0.91-0.5,1.42
		C-83.69-124.13-83.42-123.66-82.98-123.4z"/>
	<path class="st0" d="M-69.2-138.93c-0.17-0.27-0.28-0.58-0.32-0.9c-0.09-0.39-0.14-0.79-0.14-1.19c0.58,0.1,1.18,0.15,1.77,0.15
		h1.56c0.35-0.7,0.73-1.4,1.15-2.09s0.81-1.32,1.2-1.89c0.34-0.5,0.71-0.99,1.1-1.45c0.23-0.29,0.49-0.55,0.79-0.77
		c0.31,0.01,0.61,0.05,0.91,0.12c0.36,0.09,0.73,0.19,1.11,0.32s0.72,0.27,1,0.41c0.24,0.09,0.45,0.24,0.63,0.42
		c-0.7,0.9-1.31,1.72-1.82,2.48s-1.05,1.64-1.64,2.62h1.43c0.49,0,0.98-0.03,1.47-0.1c0.13,0.12,0.22,0.27,0.28,0.44
		c0.07,0.17,0.11,0.36,0.11,0.55c-1.35,0.48-2.78,0.71-4.21,0.67c-0.6,1.14-1.12,2.27-1.58,3.39c-0.46,1.12-0.85,2.21-1.17,3.25
		c-0.3,0.96-0.55,1.95-0.74,2.94c-0.17,0.82-0.26,1.65-0.27,2.49c0,1.04,0.39,1.62,1.17,1.74c0.69-0.09,1.36-0.27,2-0.53
		c0.61-0.25,1.19-0.58,1.7-1c0.12,0.16,0.2,0.35,0.25,0.54c-0.21,0.27-0.46,0.52-0.73,0.73c-0.36,0.3-0.73,0.58-1.12,0.83
		c-0.37,0.25-0.76,0.48-1.16,0.69c-0.27,0.14-0.55,0.25-0.85,0.31c-0.61,0-1.21-0.12-1.77-0.35c-0.57-0.23-1.11-0.53-1.61-0.89
		c-0.46-0.33-0.86-0.73-1.19-1.19c-0.29-0.37-0.45-0.82-0.46-1.29c0.02-0.72,0.09-1.43,0.23-2.14c0.15-0.87,0.37-1.8,0.65-2.82
		c0.28-1.02,0.62-2.08,1-3.19s0.79-2.21,1.23-3.3L-69.2-138.93z"/>
	<path class="st0" d="M-59.65-126.08c0.12-0.68,0.32-1.58,0.62-2.7c0.3-1.12,0.64-2.32,1-3.58s0.83-2.53,1.28-3.81
		s0.88-2.42,1.31-3.43c0.24-0.59,0.51-1.16,0.81-1.72c0.22-0.36,0.48-0.7,0.78-1c0.34,0.06,0.67,0.14,1,0.25
		c0.34,0.12,0.68,0.26,1,0.42c0.31,0.15,0.6,0.32,0.89,0.51c0.22,0.15,0.42,0.32,0.6,0.52c-0.66,0.79-1.23,1.65-1.68,2.58
		c-0.54,1.18-1,2.4-1.38,3.64c1.28-1.13,2.4-2.22,3.38-3.26c1.01-1.08,1.93-2.24,2.75-3.47c0.22-0.13,0.48-0.19,0.74-0.17
		c0.32,0,0.65,0.05,0.95,0.16c0.26,0.07,0.49,0.22,0.64,0.44c-0.41,1.07-0.63,2.21-0.64,3.36c-0.05,0.81,0.11,1.61,0.47,2.34
		c-0.12,0.29-0.28,0.57-0.48,0.81c-0.3,0.4-0.64,0.78-1,1.13c-1.31-0.69-2.3-1.85-2.79-3.25c-0.99,0.7-1.92,1.48-2.8,2.32
		c-0.77,0.74-1.44,1.57-2,2.48c-0.59,0.98-1.07,2.02-1.43,3.11c-0.39,1.18-0.76,2.59-1.12,4.22c-0.26-0.05-0.52-0.12-0.76-0.23
		c-0.61-0.27-1.18-0.63-1.69-1.06C-59.4-125.63-59.55-125.84-59.65-126.08z"/>
	<path class="st0" d="M-32.32-139.67c0.28,0.01,0.56,0.05,0.83,0.12c0.3,0.08,0.59,0.19,0.87,0.32c0.23,0.11,0.45,0.25,0.65,0.41
		c0.18,0.14,0.27,0.27,0.27,0.39c-0.47,1-0.91,2-1.31,3s-0.74,2-1,2.89c-0.26,0.85-0.48,1.71-0.65,2.58
		c-0.14,0.69-0.22,1.39-0.23,2.09c-0.01,0.55,0.06,1.11,0.21,1.64c0.11,0.39,0.36,0.73,0.71,0.94c-0.34,0.21-0.71,0.37-1.1,0.46
		c-0.39,0.11-0.79,0.17-1.2,0.18c-1.28,0-1.91-0.87-1.91-2.62c0.13-1.9,0.58-3.77,1.34-5.52c-0.46,1.04-1.01,2.05-1.63,3
		c-0.56,0.88-1.19,1.72-1.87,2.52c-0.58,0.7-1.23,1.33-1.96,1.87c-0.53,0.4-1.14,0.68-1.79,0.83c-0.87,0-1.67-0.45-2.12-1.2
		c-0.57-0.89-0.86-1.94-0.82-3c0.02-1.44,0.31-2.86,0.85-4.19c0.56-1.45,1.29-2.82,2.18-4.09c0.81-1.18,1.78-2.23,2.88-3.14
		c0.82-0.76,1.88-1.21,3-1.27c0.29,0.1,0.56,0.25,0.8,0.43c0.3,0.22,0.59,0.47,0.85,0.74c0.26,0.26,0.49,0.55,0.69,0.86
		c0.16,0.23,0.27,0.49,0.32,0.76c-1.06,0.17-2.06,0.61-2.91,1.27c-1.03,0.81-1.95,1.75-2.73,2.81c-0.81,1.08-1.48,2.26-2,3.51
		c-0.49,1.1-0.75,2.29-0.78,3.5c-0.05,0.36,0.16,0.72,0.5,0.85c0.95-0.33,1.78-0.95,2.37-1.76c1.22-1.49,2.31-3.08,3.26-4.76
		l0.79-1.41c0.3-0.52,0.6-1.07,0.91-1.63l0.9-1.72C-32.86-138.57-32.58-139.13-32.32-139.67z"/>
	<path class="st0" d="M-30.48-113.65c-0.33-0.09-0.52-0.45-0.57-1.06c-0.1-0.36-0.16-0.73-0.19-1.1c0-0.42-0.05-0.91-0.05-1.45
		c0.02-0.67,0.1-1.34,0.24-2c0.17-0.86,0.4-1.83,0.7-2.92s0.65-2.26,1.08-3.52s0.89-2.54,1.41-3.84c0.64-1.63,1.19-3,1.67-4.23
		s0.86-2.23,1.18-3.1c0.32-0.87,0.58-1.59,0.78-2.16c0.2-0.57,0.36-1,0.48-1.45c0.12-0.34,0.26-0.68,0.42-1
		c0.2-0.42,0.42-0.83,0.66-1.22c0.24-0.41,0.5-0.8,0.76-1.17c0.21-0.3,0.44-0.58,0.71-0.83c0.8,0.11,1.58,0.33,2.33,0.64
		c0.52,0.16,0.99,0.47,1.35,0.88c-0.43,0.43-0.81,0.92-1.13,1.44c-0.45,0.68-0.86,1.39-1.24,2.12c-0.41,0.77-0.77,1.55-1.1,2.36
		c-0.29,0.69-0.54,1.4-0.74,2.12c0.27-0.46,0.58-0.9,0.92-1.31c0.37-0.47,1-1.12,1.73-1.95c0.74-0.78,1.56-1.48,2.46-2.07
		c0.59-0.42,1.28-0.66,2-0.72c0.8-0.04,1.59,0.23,2.21,0.74c0.57,0.47,0.89,1.17,0.87,1.91c0,1.72-0.29,3.43-0.85,5.05
		c-0.55,1.63-1.37,3.16-2.44,4.51c-0.41,0.52-0.87,0.99-1.37,1.42c-0.53,0.46-1.1,0.88-1.7,1.25c-0.54,0.35-1.12,0.64-1.73,0.87
		c-0.48,0.19-1,0.3-1.52,0.32c-0.39,0.01-0.78-0.08-1.12-0.27c-0.29-0.13-0.52-0.36-0.65-0.65c1.01-0.62,1.91-1.38,2.69-2.27
		c0.92-1.03,1.73-2.15,2.42-3.34c0.77-1.31,1.42-2.67,1.95-4.09c0.55-1.45,0.97-2.94,1.26-4.46c-0.85,0.44-1.67,0.95-2.43,1.54
		c-0.81,0.63-1.54,1.37-2.17,2.18c-0.85,1-1.52,1.87-2,2.51s-0.9,1.18-1.22,1.63c-0.29,0.4-0.55,0.82-0.78,1.25
		c-0.2,0.39-0.42,0.87-0.65,1.44c-0.33,0.75-0.72,1.75-1.15,3s-0.89,2.62-1.35,4.16s-0.92,3.17-1.38,4.9
		c-0.46,1.73-0.9,3.47-1.33,5.19c-0.3-0.08-0.55-0.29-0.67-0.57c-0.19-0.21-0.33-0.36-0.41-0.46
		C-30.24-113.53-30.35-113.6-30.48-113.65z"/>
</g>
<g>
	<path class="st0" d="M60.96,38.41c-2.28,0-4.09-1.87-4.09-4.09V4.16c0-2.23,1.81-4.09,4.09-4.09c2.28,0,4.09,1.87,4.09,4.09v30.15
		C65.05,36.54,63.24,38.41,60.96,38.41z"/>
	<path class="st0" d="M92,23.64v10.67c0,2.23-1.81,4.09-4.09,4.09s-4.14-1.87-4.14-4.09V23.64c0-1.76-1.4-3.16-3.16-3.16
		c-1.76,0-3.21,1.4-3.21,3.16v10.67c0,2.23-1.81,4.09-4.09,4.09c-2.28,0-4.09-1.87-4.09-4.09V16.44c0-2.18,1.71-3.94,3.89-3.94
		c0.93,0,1.81,0.36,2.49,0.88c1.5-0.73,3.21-1.14,5.03-1.14C86.92,12.24,92,17.37,92,23.64z"/>
	<path class="st0" d="M99.77,38.41c-2.28,0-4.15-1.87-4.15-4.15V16.34c0-2.28,1.87-4.15,4.15-4.15c2.28,0,4.14,1.87,4.14,4.15v17.93
		C103.92,36.54,102.05,38.41,99.77,38.41z M103.29,7.48c0,1.97-1.61,3.57-3.52,3.57c-1.97,0-3.58-1.61-3.58-3.57
		c0-1.92,1.61-3.52,3.58-3.52C101.69,3.95,103.29,5.56,103.29,7.48z"/>
	<path class="st0" d="M120.55,38.82c-7.3,0-13.26-5.96-13.26-13.26s5.96-13.26,13.26-13.26c2.95,0,5.75,0.93,8.08,2.75
		c1.81,1.4,2.18,3.99,0.78,5.75c-1.4,1.81-3.99,2.18-5.8,0.78c-0.88-0.67-1.92-1.04-3.06-1.04c-2.75,0-5.02,2.28-5.02,5.03
		s2.28,5.03,5.02,5.03c1.14,0,2.18-0.36,3.06-1.04c1.81-1.4,4.4-1.04,5.8,0.78c1.35,1.81,1.04,4.4-0.78,5.75
		C126.3,37.89,123.5,38.82,120.55,38.82z"/>
	<path class="st0" d="M137.75,38.41c-2.28,0-4.14-1.87-4.14-4.15V16.34c0-2.28,1.86-4.15,4.14-4.15s4.14,1.87,4.14,4.15v17.93
		C141.9,36.54,140.03,38.41,137.75,38.41z M141.27,7.48c0,1.97-1.61,3.57-3.52,3.57c-1.97,0-3.57-1.61-3.57-3.57
		c0-1.92,1.61-3.52,3.57-3.52C139.67,3.95,141.27,5.56,141.27,7.48z"/>
	<path class="st0" d="M171.79,25.56c0,7.31-5.96,13.26-13.26,13.26c-7.3,0-13.26-5.96-13.26-13.26s5.96-13.26,13.26-13.26
		C165.83,12.29,171.79,18.25,171.79,25.56z M153.5,25.56c0,2.8,2.23,5.03,5.03,5.03c2.8,0,5.03-2.23,5.03-5.03
		c0-2.8-2.23-5.03-5.03-5.03C155.73,20.53,153.5,22.76,153.5,25.56z"/>
</g>
</svg>
